<svg width="48" height="48" viewBox="0 0 48 48" fill="none" xmlns="http://www.w3.org/2000/svg">
<g clip-path="url(#clip0)">
<path d="M48.0001 48V45.3334C48.0001 43.2116 47.1572 41.1768 45.6569 39.6765C44.1566 38.1762 42.1218 37.3334 40.0001 37.3334H18.6667C16.545 37.3334 14.5102 38.1762 13.0099 39.6765C11.5096 41.1768 10.6667 43.2116 10.6667 45.3334V48H48.0001Z" fill="#E1E8ED"/>
<path d="M39.732 37.5027C39.732 39.316 35.0774 40.748 29.3334 40.748C23.5907 40.748 18.9347 39.3347 18.9347 37.5214C18.9347 37.4387 18.9547 37.3334 18.9734 37.3334H17.9947L17.0547 37.4654L17.0627 38.8214C17.2147 42.028 22.644 43.344 29.3334 43.344C35.9947 43.344 41.4054 41.9987 41.6 38.792L41.6187 37.4934C41.6187 37.496 39.732 37.42 39.732 37.5027V37.5027Z" fill="#EA596E"/>
<path d="M29.3334 42.012C36.1184 42.012 41.6188 39.9591 41.6188 37.4266C41.6188 34.8942 36.1184 32.8413 29.3334 32.8413C22.5484 32.8413 17.0481 34.8942 17.0481 37.4266C17.0481 39.9591 22.5484 42.012 29.3334 42.012Z" fill="#BE1931"/>
<path d="M29.3335 40.7107C23.5908 40.7107 18.9348 39.24 18.9348 37.4267C18.9348 35.6134 23.5908 34.1427 29.3335 34.1427C35.0761 34.1427 39.7321 35.6134 39.7321 37.4267C39.7321 39.24 35.0761 40.7107 29.3335 40.7107Z" fill="#292F33"/>
<path d="M23.52 37.2493C25.8454 38.9386 27.3174 39.264 29.3334 39.264C31.348 39.264 32.8214 38.9373 35.1467 37.2493V32.168H23.52V37.2493Z" fill="#F7DECE"/>
<path d="M23.5093 34.6307C25.1306 36.4627 27.1413 36.9587 29.3279 36.9587C31.5133 36.9587 33.5239 36.4627 35.1466 34.6307V29.976H23.5093V34.6307V34.6307Z" fill="#EEC2AD"/>
<path d="M34.1294 4.68796C31.5627 3.8573 25.5227 4.08396 24.0121 6.04663C20.0867 6.12263 15.4814 9.67063 14.8774 14.3506C14.2801 18.984 15.6121 21.1346 16.0854 24.6186C16.6227 28.5653 18.8414 29.828 20.6147 30.356C23.1667 33.728 25.8801 33.584 30.4361 33.584C39.3321 33.584 43.5694 27.632 43.9441 17.5213C44.1707 11.408 40.5827 6.77596 34.1294 4.68796V4.68796Z" fill="#292F33"/>
<path d="M39.2172 17.9547C38.3559 16.7627 37.2546 15.8027 34.8386 15.464C35.7452 15.8787 36.6132 17.3133 36.7266 18.1067C36.8399 18.9 36.9532 19.5413 36.2359 18.748C33.3626 15.572 30.2332 16.8227 27.1332 14.8827C24.9679 13.528 24.3079 12.028 24.3079 12.028C24.3079 12.028 24.0439 14.028 20.7599 16.0667C19.8079 16.6573 18.6719 17.9733 18.0426 19.9173C17.5892 21.3147 17.7306 22.56 17.7306 24.688C17.7306 30.9013 22.8519 36.1253 29.1679 36.1253C35.4839 36.1253 40.6052 30.8547 40.6052 24.688C40.6039 20.824 40.1986 19.3133 39.2172 17.9547V17.9547Z" fill="#F7DECE"/>
<path d="M30.4359 27.8667H27.8945C27.7259 27.8667 27.5641 27.7997 27.4448 27.6804C27.3256 27.5611 27.2585 27.3993 27.2585 27.2307C27.2585 27.062 27.3256 26.9002 27.4448 26.7809C27.5641 26.6617 27.7259 26.5947 27.8945 26.5947H30.4359C30.6046 26.5947 30.7663 26.6617 30.8856 26.7809C31.0049 26.9002 31.0719 27.062 31.0719 27.2307C31.0719 27.3993 31.0049 27.5611 30.8856 27.6804C30.7663 27.7997 30.6046 27.8667 30.4359 27.8667Z" fill="#C1694F"/>
<path d="M24.0827 23.4186C23.7457 23.4186 23.4225 23.2848 23.1842 23.0465C22.9459 22.8082 22.812 22.485 22.812 22.148V20.8773C22.812 20.5403 22.9459 20.2171 23.1842 19.9788C23.4225 19.7405 23.7457 19.6066 24.0827 19.6066C24.4197 19.6066 24.7429 19.7405 24.9812 19.9788C25.2195 20.2171 25.3533 20.5403 25.3533 20.8773V22.148C25.3533 22.485 25.2195 22.8082 24.9812 23.0465C24.7429 23.2848 24.4197 23.4186 24.0827 23.4186ZM34.2493 23.4186C33.9123 23.4186 33.5891 23.2848 33.3508 23.0465C33.1126 22.8082 32.9787 22.485 32.9787 22.148V20.8773C32.9787 20.5403 33.1126 20.2171 33.3508 19.9788C33.5891 19.7405 33.9123 19.6066 34.2493 19.6066C34.5863 19.6066 34.9095 19.7405 35.1478 19.9788C35.3861 20.2171 35.52 20.5403 35.52 20.8773V22.148C35.52 22.485 35.3861 22.8082 35.1478 23.0465C34.9095 23.2848 34.5863 23.4186 34.2493 23.4186Z" fill="#662113"/>
<path d="M29.3335 33.1733C25.6615 33.1733 24.5335 32.2333 24.3455 32.0426C24.2623 31.9636 24.1955 31.8691 24.1489 31.7643C24.1023 31.6595 24.0768 31.5466 24.0738 31.4319C24.0678 31.2004 24.154 30.9759 24.3135 30.808C24.473 30.64 24.6926 30.5422 24.9242 30.5362C25.1557 30.5302 25.3802 30.6165 25.5482 30.776C25.6175 30.8253 26.5095 31.4253 29.3335 31.4253C32.2668 31.4253 33.1148 30.7786 33.1228 30.772C33.2034 30.6921 33.2991 30.6291 33.4044 30.5868C33.5096 30.5445 33.6223 30.5236 33.7357 30.5255C33.8491 30.5274 33.961 30.5519 34.0648 30.5977C34.1687 30.6434 34.2623 30.7095 34.3402 30.7919C34.5017 30.9612 34.5903 31.1872 34.5868 31.4211C34.5833 31.655 34.488 31.8783 34.3215 32.0426C34.1335 32.2333 33.0055 33.1733 29.3335 33.1733Z" fill="#C1694F"/>
<path d="M44 44V48H48V45.3333C48 44.8787 47.9533 44.4347 47.88 44H44Z" fill="#55ACEE"/>
<path d="M45.3333 45.3333H47.9999V48H45.3333V45.3333Z" fill="#FFCC4D"/>
<path d="M32.0054 48C30.408 41.1387 23.9414 36 16.1961 36C8.45072 36 1.98405 41.1387 0.386719 48H32.0054V48Z" fill="#E1E8ED"/>
<path d="M30.2252 48.0001C28.6612 42.0481 22.9825 37.6294 16.1958 37.6294C9.40917 37.6294 3.7305 42.0481 2.1665 48.0001H30.2252Z" fill="#292F33"/>
<path d="M28.8494 48C27.3187 42.7507 22.2414 38.8893 16.1961 38.8893C10.1507 38.8893 5.07339 42.7507 3.54272 48H28.8494Z" fill="#FFAC33"/>
<path d="M24.2598 46.7307L24.3971 46.6467C25.4224 46.0227 25.6344 44.596 24.7984 43.7374C24.1724 43.0929 23.4714 42.5257 22.7104 42.048C21.9644 41.586 21.1653 41.2158 20.3304 40.9454C19.2264 40.5814 18.0491 41.256 17.8424 42.4C17.6838 43.2814 18.1411 44.1947 18.9824 44.504C20.1139 44.9179 21.1326 45.591 21.9571 46.4694C22.5478 47.0987 23.5224 47.18 24.2598 46.7307V46.7307Z" fill="#FFDC5D"/>
<path d="M8.4587 19.016L6.4027 18.2547L5.6027 15.3214C5.55081 15.1338 5.43878 14.9683 5.28382 14.8505C5.12886 14.7327 4.93953 14.669 4.74486 14.6691C4.55019 14.6693 4.36095 14.7333 4.20618 14.8514C4.0514 14.9694 3.93964 15.135 3.88803 15.3227L3.08803 18.256L1.03203 19.0174C0.860952 19.0796 0.713154 19.1929 0.608711 19.342C0.504268 19.4911 0.448242 19.6687 0.448242 19.8507C0.448242 20.0327 0.504268 20.2104 0.608711 20.3594C0.713154 20.5085 0.860952 20.6219 1.03203 20.684L3.07737 21.4414L3.8827 24.6614C3.93103 24.8537 4.04223 25.0243 4.19862 25.1461C4.35501 25.268 4.54763 25.334 4.74589 25.3339C4.94414 25.3337 5.13666 25.2674 5.29286 25.1453C5.44907 25.0232 5.56 24.8524 5.60803 24.66L6.41337 21.44L8.4587 20.6827C8.62978 20.6205 8.77758 20.5072 8.88202 20.3581C8.98647 20.209 9.04249 20.0314 9.04249 19.8494C9.04249 19.6673 8.98647 19.4897 8.88202 19.3406C8.77758 19.1916 8.62978 19.0782 8.4587 19.016V19.016Z" fill="#9266CC"/>
<path d="M15.0399 6.17863L11.5599 4.89063L10.2719 1.41063C10.1674 1.12893 9.97911 0.885967 9.73241 0.714398C9.48572 0.542829 9.19243 0.450867 8.89195 0.450867C8.59146 0.450867 8.29817 0.542829 8.05148 0.714398C7.80479 0.885967 7.61651 1.12893 7.51195 1.41063L6.22395 4.89063L2.74395 6.17863C2.46224 6.2832 2.21928 6.47147 2.04771 6.71816C1.87614 6.96485 1.78418 7.25814 1.78418 7.55863C1.78418 7.85912 1.87614 8.15241 2.04771 8.3991C2.21928 8.64579 2.46224 8.83407 2.74395 8.93863L6.22395 10.2266L7.51195 13.7066C7.61594 13.9889 7.804 14.2325 8.05076 14.4046C8.29752 14.5767 8.59112 14.6689 8.89195 14.6689C9.19278 14.6689 9.48637 14.5767 9.73313 14.4046C9.97989 14.2325 10.168 13.9889 10.2719 13.7066L11.5599 10.2266L15.0399 8.93863C15.3217 8.83407 15.5646 8.64579 15.7362 8.3991C15.9077 8.15241 15.9997 7.85912 15.9997 7.55863C15.9997 7.25814 15.9077 6.96485 15.7362 6.71816C15.5646 6.47147 15.3217 6.2832 15.0399 6.17863V6.17863Z" fill="#5DADEC"/>
</g>
<defs>
<clipPath id="clip0">
<rect width="48" height="48" fill="white"/>
</clipPath>
</defs>
</svg>
