<svg width="20" height="21" viewBox="0 0 20 21" fill="none" xmlns="http://www.w3.org/2000/svg">
<path d="M19.8223 17.894L19.3174 17.3886L19.1748 17.2423L14.3598 12.5013C15.5022 10.8914 16.0022 8.9125 15.7619 6.9527C15.5216 4.9929 14.5583 3.1937 13.0609 1.9081C11.5636 0.622493 9.64024 -0.0567214 7.66831 0.00371251C5.69639 0.0641464 3.81819 0.859866 2.40222 2.23476C0.986251 3.60965 0.13471 5.46446 0.0146673 7.43531C-0.105375 9.40615 0.514744 11.3508 1.75336 12.8876C2.99198 14.4245 4.75969 15.4426 6.70968 15.7423C8.65967 16.042 10.6512 15.6017 12.2935 14.5076L17.2459 19.3891L17.7864 19.9293C18.1324 20.2764 18.8697 20.101 19.4317 19.5385C19.9938 18.9759 20.1683 18.2402 19.8223 17.894ZM8.01085 13.4799C6.90731 13.4798 5.8286 13.1521 4.91111 12.5384C3.99362 11.9247 3.27856 11.0525 2.85636 10.032C2.43415 9.01161 2.32376 7.88879 2.53914 6.80557C2.75452 5.72234 3.286 4.72736 4.06637 3.94644C4.84674 3.16552 5.84096 2.63373 6.92331 2.41831C8.00566 2.20289 9.12752 2.31353 10.147 2.73622C11.1666 3.15892 12.038 3.87469 12.651 4.79303C13.2641 5.71136 13.5914 6.79103 13.5914 7.89549C13.5913 8.62885 13.4468 9.35501 13.1663 10.0325C12.8858 10.71 12.4748 11.3256 11.9566 11.8441C11.4384 12.3626 10.8232 12.7738 10.1462 13.0544C9.46919 13.3349 8.7436 13.4793 8.01085 13.4792V13.4799Z" fill="#FF6B74"/>
</svg>
