<svg width="1452" height="450" viewBox="0 0 1452 450" fill="none" xmlns="http://www.w3.org/2000/svg">
<path d="M1252.34 48H995.53C975.355 48 959 64.3551 959 84.5301C959 104.705 975.355 121.06 995.53 121.06H1081.98C1093.97 121.06 1103.68 130.777 1103.68 142.764C1103.68 154.751 1093.97 164.468 1081.98 164.468H1009.77C981.729 164.468 959 187.197 959 215.234C959 243.271 981.729 266 1009.77 266H1051.33H1306.74C1320.82 266 1332.23 254.586 1332.23 240.507C1332.23 226.427 1320.82 215.013 1306.74 215.013H1186.84C1177.63 215.013 1170.17 207.55 1170.17 198.344C1170.17 189.139 1177.63 181.676 1186.84 181.676H1376.47C1389.46 181.676 1400 171.14 1400 158.143C1400 145.147 1389.46 134.611 1376.47 134.611H1239.66C1228.4 134.611 1219.28 125.485 1219.28 114.229C1219.28 102.972 1228.4 93.8461 1239.66 93.8461H1252.34C1265 93.8461 1275.26 83.5831 1275.26 70.923C1275.26 58.263 1265 48 1252.34 48Z" fill="url(#paint0_linear)"/>
<path d="M1289.8 350.732C1289.66 350.137 1289.69 349.512 1289.91 348.939C1290.12 348.365 1290.5 347.867 1290.99 347.509C1291.49 347.151 1292.08 346.949 1292.69 346.928C1293.31 346.907 1293.91 347.069 1294.43 347.393L1321.07 363.823C1321.77 364.254 1322.26 364.944 1322.45 365.741C1322.64 366.538 1322.5 367.377 1322.07 368.074C1321.64 368.77 1320.95 369.267 1320.15 369.455C1319.36 369.643 1318.52 369.507 1317.82 369.076L1291.18 352.646C1290.84 352.433 1290.54 352.155 1290.3 351.827C1290.06 351.498 1289.89 351.126 1289.8 350.732Z" fill="#C4C4C4"/>
<path d="M1294.9 372.267C1294.81 371.872 1294.8 371.463 1294.86 371.062C1294.93 370.662 1295.07 370.278 1295.29 369.934L1311.72 343.294C1312.15 342.596 1312.84 342.098 1313.63 341.908C1314.43 341.719 1315.27 341.853 1315.97 342.282C1316.67 342.712 1317.16 343.4 1317.35 344.197C1317.54 344.994 1317.41 345.833 1316.98 346.531L1300.55 373.171C1300.23 373.693 1299.76 374.108 1299.21 374.364C1298.65 374.62 1298.03 374.705 1297.43 374.608C1296.82 374.511 1296.26 374.236 1295.81 373.819C1295.37 373.402 1295.05 372.861 1294.91 372.265L1294.9 372.267Z" fill="#C4C4C4"/>
<path d="M909 439C906.033 439 903.133 438.12 900.666 436.472C898.2 434.824 896.277 432.481 895.142 429.74C894.006 426.999 893.709 423.983 894.288 421.074C894.867 418.164 896.296 415.491 898.393 413.393C900.491 411.296 903.164 409.867 906.074 409.288C908.983 408.709 911.999 409.006 914.74 410.142C917.481 411.277 919.824 413.2 921.472 415.666C923.12 418.133 924 421.033 924 424C923.995 427.977 922.413 431.789 919.601 434.601C916.789 437.413 912.977 438.995 909 439V439ZM909 415.173C907.254 415.173 905.548 415.691 904.096 416.661C902.645 417.631 901.513 419.009 900.845 420.622C900.177 422.235 900.002 424.01 900.343 425.722C900.683 427.434 901.524 429.007 902.759 430.241C903.993 431.476 905.566 432.317 907.278 432.657C908.99 432.998 910.765 432.823 912.378 432.155C913.991 431.487 915.369 430.355 916.339 428.904C917.309 427.452 917.827 425.746 917.827 424C917.824 421.66 916.894 419.416 915.239 417.761C913.584 416.106 911.34 415.176 909 415.173V415.173Z" fill="#C4C4C4"/>
<path d="M1449.79 66H1409.21C1408.62 66 1408.06 65.6313 1407.65 64.9749C1407.23 64.3185 1407 63.4283 1407 62.5C1407 61.5718 1407.23 60.6815 1407.65 60.0251C1408.06 59.3688 1408.62 59 1409.21 59H1449.79C1450.38 59 1450.94 59.3688 1451.35 60.0251C1451.77 60.6815 1452 61.5718 1452 62.5C1452 63.4283 1451.77 64.3185 1451.35 64.9749C1450.94 65.6313 1450.38 66 1449.79 66V66Z" fill="#C4C4C4"/>
<g opacity="0.8">
<path d="M829 30C826.033 30 823.133 29.1203 820.666 27.472C818.2 25.8238 816.277 23.4811 815.142 20.7402C814.006 17.9993 813.709 14.9834 814.288 12.0736C814.867 9.16393 816.296 6.49119 818.393 4.39341C820.491 2.29562 823.164 0.867006 826.074 0.288228C828.983 -0.29055 831.999 0.00649698 834.74 1.14181C837.481 2.27712 839.824 4.19968 841.472 6.66642C843.12 9.13315 844 12.0333 844 15C843.995 18.9768 842.413 22.7892 839.601 25.6012C836.789 28.4132 832.977 29.9952 829 30V30ZM829 6.17326C827.254 6.17326 825.548 6.69091 824.096 7.66081C822.645 8.6307 821.513 10.0092 820.845 11.6221C820.177 13.235 820.002 15.0097 820.343 16.722C820.683 18.4342 821.524 20.007 822.759 21.2414C823.993 22.4759 825.566 23.3165 827.278 23.6571C828.99 23.9977 830.765 23.8229 832.378 23.1548C833.991 22.4867 835.369 21.3554 836.339 19.9039C837.309 18.4523 837.827 16.7458 837.827 15C837.824 12.6597 836.894 10.416 835.239 8.76122C833.584 7.10641 831.34 6.17567 829 6.17326V6.17326Z" fill="#C4C4C4"/>
</g>
<g filter="url(#filter0_d)">
<rect x="1159" y="106" width="244" height="359" rx="30" transform="rotate(90 1159 106)" fill="white"/>
</g>
<rect x="951" y="134" width="188" height="125" rx="20" transform="rotate(90 951 134)" fill="#E0E0E0"/>
<path fill-rule="evenodd" clip-rule="evenodd" d="M872.676 257.44C889.04 266.827 909.963 261.256 919.411 244.997C928.858 228.738 923.252 207.947 906.888 198.56C890.525 189.173 869.601 194.744 860.154 211.003C853.928 221.718 854.24 234.402 859.86 244.492C876.518 244.88 883.348 255.492 890.263 256.289C886.08 257.44 881.13 255.919 874.763 252.179C872.475 253.42 867.301 253.706 868.851 254.894C870.051 255.814 871.327 256.666 872.676 257.44ZM909.639 230.199C905.389 231.33 901.021 228.825 899.883 224.602C898.744 220.38 901.266 216.039 905.516 214.908C909.765 213.777 914.133 216.282 915.272 220.505C916.41 224.727 913.889 229.068 909.639 230.199ZM896.219 253.296C891.969 254.427 887.601 251.921 886.463 247.699C885.324 243.476 887.846 239.136 892.095 238.005C896.345 236.873 900.713 239.379 901.851 243.602C902.99 247.824 900.468 252.164 896.219 253.296ZM887.596 231.317C889.628 232.483 892.218 231.806 893.38 229.806C894.542 227.807 893.836 225.24 891.804 224.075C889.772 222.909 887.183 223.585 886.021 225.585C884.859 227.585 885.564 230.151 887.596 231.317ZM872.974 239.961C868.725 241.092 864.357 238.586 863.218 234.364C862.079 230.141 864.601 225.801 868.851 224.67C873.1 223.538 877.468 226.044 878.607 230.267C879.746 234.489 877.224 238.829 872.974 239.961ZM876.638 211.267C877.777 215.49 882.145 217.995 886.394 216.864C890.644 215.733 893.166 211.392 892.027 207.17C890.888 202.947 886.52 200.442 882.271 201.573C878.021 202.704 875.5 207.045 876.638 211.267Z" fill="#C4C4C4"/>
<path fill-rule="evenodd" clip-rule="evenodd" d="M873.368 257.846C864.718 251.9 849.623 255.61 844 258.341C856.459 245.439 871.098 249.51 876.421 253.169C877.647 254.012 877.706 255.943 876.857 257.162C876.008 258.381 874.595 258.689 873.368 257.846Z" fill="#C4C4C4"/>
<rect x="977" y="149" width="139" height="18" rx="9" fill="#C4C4C4"/>
<rect x="977" y="185" width="148" height="19" rx="9.5" fill="#C4C4C4"/>
<rect x="977" y="239" width="109" height="9" rx="4.5" fill="#E0E0E0"/>
<rect x="977" y="259" width="83" height="9" rx="4.5" fill="#E0E0E0"/>
<g filter="url(#filter1_d)">
<path d="M832.244 158H649.367H632.94C619.267 158 608.183 169.084 608.183 182.756C608.183 196.429 619.267 207.512 632.94 207.512H642.607C653.922 207.512 663.095 216.685 663.095 228C663.095 239.315 653.922 248.488 642.607 248.488H591.756C578.084 248.488 567 259.571 567 273.244C567 286.916 578.084 298 591.756 298H773.901C787.573 298 798.657 286.916 798.657 273.244C798.657 259.571 787.573 248.488 773.901 248.488H752.222C740.906 248.488 731.734 239.315 731.734 228C731.734 216.685 740.906 207.512 752.222 207.512H832.244C845.916 207.512 857 196.429 857 182.756C857 169.084 845.916 158 832.244 158Z" fill="url(#paint1_linear)"/>
</g>
<g filter="url(#filter2_d)">
<path d="M1151.35 388.414L1146.65 383.714L1145.33 382.353L1100.55 338.262C1111.17 323.29 1115.82 304.886 1113.59 286.66C1111.35 268.434 1102.39 251.701 1088.47 239.745C1074.54 227.789 1056.65 221.472 1038.32 222.035C1019.98 222.597 1002.51 229.997 989.341 242.783C976.172 255.57 968.253 272.82 967.136 291.148C966.02 309.477 971.787 327.562 983.306 341.855C994.825 356.147 1011.27 365.616 1029.4 368.404C1047.53 371.191 1066.06 367.096 1081.33 356.921L1127.39 402.319L1132.41 407.343C1135.63 410.57 1142.49 408.939 1147.72 403.708C1152.94 398.476 1154.56 391.634 1151.35 388.414ZM1041.5 347.363C1031.24 347.362 1021.21 344.315 1012.67 338.607C1004.14 332.9 997.491 324.788 993.564 315.298C989.638 305.808 988.611 295.366 990.614 285.292C992.617 275.218 997.56 265.964 1004.82 258.702C1012.07 251.439 1021.32 246.494 1031.39 244.49C1041.45 242.487 1051.89 243.516 1061.37 247.447C1070.85 251.378 1078.95 258.035 1084.65 266.575C1090.36 275.116 1093.4 285.157 1093.4 295.428C1093.4 302.248 1092.06 309.002 1089.45 315.302C1086.84 321.603 1083.02 327.328 1078.2 332.15C1073.38 336.972 1067.66 340.797 1061.36 343.406C1055.06 346.015 1048.32 347.357 1041.5 347.356V347.363Z" fill="url(#paint2_linear)"/>
</g>
<path d="M5.24 136.16C5.88 139.88 8.32 142.36 12.2 142.36C16.04 142.36 18.8 140.12 18.8 136.16C18.8 134 17.8 132.32 15.92 131.28L11.48 129.32C9.88 128.6 8.68 128.04 8.68 126.08C8.68 124.2 10.36 123.32 12.08 123.32C14.36 123.32 15.44 124.76 15.92 126.8L18.48 126.04C17.64 122.8 15.6 120.8 12.12 120.8C8.84 120.8 6 122.76 6 126.28C6 130.2 8.88 131 11.92 132.28C13.96 133.12 16.12 133.76 16.12 136.32C16.12 138.64 14.4 139.84 12.2 139.84C9.4 139.84 8.16 137.96 7.64 135.4L5.24 136.16ZM34.2644 142H47.2644V139.6H36.9444V132.2H45.4644V129.8H36.9444V123.56H47.2644V121.16H34.2644V142ZM71.6888 136.32L73.6088 142.52L76.2488 141.56L69.6888 121.16H66.2487L59.6888 141.56L62.3288 142.52L64.2888 136.32H71.6888ZM70.9288 133.92H65.0088L67.9688 124.28L70.9288 133.92ZM92.5931 130.68V123.56H96.9131C99.3131 123.56 100.433 124.96 100.433 126.84C100.433 129.2 98.7131 130.68 96.1131 130.68H92.5931ZM89.9131 142H92.5931V133.08H96.4731L101.793 142.52L104.113 141.12L98.9931 132.68C101.513 131.92 103.233 129.4 103.233 126.84C103.233 122.8 100.473 121.16 96.9931 121.16H89.9131V142ZM129.218 136.48C127.978 138.36 126.738 139.84 124.298 139.84C120.058 139.84 119.298 134.8 119.298 131.56C119.298 128.36 120.138 123.32 124.298 123.32C126.338 123.32 127.538 124.8 128.418 126.48L130.858 125.24C129.378 122.48 127.498 120.8 124.258 120.8C120.898 120.8 116.498 123.28 116.498 131.6C116.498 136.76 118.418 142.36 124.498 142.36C127.738 142.36 129.738 140.64 131.418 138L129.218 136.48ZM145.122 142H147.802V132.2H156.042V142H158.722V121.16H156.042V129.8H147.802V121.16H145.122V142ZM12 188.36L6.44 177.64L3.92 178.96L10.64 190.96V199H13.32V190.96L20.08 178.96L17.56 177.64L12 188.36ZM39.9844 177.8C36.5444 177.8 32.5844 180.28 32.5844 188.6C32.5844 196.96 36.6244 199.36 39.9844 199.36C47.2644 199.36 47.3844 190.28 47.3844 188.6C47.3844 180.2 43.3044 177.8 39.9844 177.8ZM39.9844 180.32C44.0244 180.32 44.5844 185.52 44.5844 188.6C44.5844 191.64 44.0244 196.84 39.9844 196.84C35.9444 196.84 35.3844 191.64 35.3844 188.6C35.3844 185.52 35.9444 180.32 39.9844 180.32ZM61.4488 178.16V193.48C61.4488 196.52 63.4488 199.36 67.9688 199.36C72.5688 199.36 74.5288 196.4 74.5288 193.64V178.16H71.8488V192.36C71.8488 195.36 71.1288 196.84 67.7688 196.84C65.0088 196.84 64.1288 195.4 64.1288 192.36V178.16H61.4488ZM92.5931 187.68V180.56H96.9131C99.3131 180.56 100.433 181.96 100.433 183.84C100.433 186.2 98.7131 187.68 96.1131 187.68H92.5931ZM89.9131 199H92.5931V190.08H96.4731L101.793 199.52L104.113 198.12L98.9931 189.68C101.513 188.92 103.233 186.4 103.233 183.84C103.233 179.8 100.473 178.16 96.9931 178.16H89.9131V199ZM7.04 257H9.72V247.2H18.48V244.8H9.72V238.56H20.16V236.16H7.04V257ZM35.7044 257H44.2644V254.6H41.3044V238.56H44.2644V236.16H35.7044V238.56H38.6244V254.6H35.7044V257ZM62.7688 257H76.3688V254.6H65.4488V236.16H62.7688V257ZM95.9531 251.12L100.633 240.12H100.713L101.233 257H104.073L103.233 236.16H99.7131L95.9531 245.2L92.1931 236.16H88.6731L87.8331 257H90.6731L91.1931 240.12H91.2731L95.9531 251.12ZM122.098 257H125.778V251.08H122.098V257Z" fill="#3F0044"/>
<defs>
<filter id="filter0_d" x="767" y="81" width="425" height="310" filterUnits="userSpaceOnUse" color-interpolation-filters="sRGB">
<feFlood flood-opacity="0" result="BackgroundImageFix"/>
<feColorMatrix in="SourceAlpha" type="matrix" values="0 0 0 0 0 0 0 0 0 0 0 0 0 0 0 0 0 0 127 0"/>
<feOffset dy="8"/>
<feGaussianBlur stdDeviation="16.5"/>
<feColorMatrix type="matrix" values="0 0 0 0 0.663755 0 0 0 0 0.663755 0 0 0 0 0.663755 0 0 0 0.56 0"/>
<feBlend mode="normal" in2="BackgroundImageFix" result="effect1_dropShadow"/>
<feBlend mode="normal" in="SourceGraphic" in2="effect1_dropShadow" result="shape"/>
</filter>
<filter id="filter1_d" x="534" y="133" width="356" height="206" filterUnits="userSpaceOnUse" color-interpolation-filters="sRGB">
<feFlood flood-opacity="0" result="BackgroundImageFix"/>
<feColorMatrix in="SourceAlpha" type="matrix" values="0 0 0 0 0 0 0 0 0 0 0 0 0 0 0 0 0 0 127 0"/>
<feOffset dy="8"/>
<feGaussianBlur stdDeviation="16.5"/>
<feColorMatrix type="matrix" values="0 0 0 0 0.764706 0 0 0 0 0.188235 0 0 0 0 0.545098 0 0 0 0.56 0"/>
<feBlend mode="normal" in2="BackgroundImageFix" result="effect1_dropShadow"/>
<feBlend mode="normal" in="SourceGraphic" in2="effect1_dropShadow" result="shape"/>
</filter>
<filter id="filter2_d" x="934" y="197" width="252" height="253" filterUnits="userSpaceOnUse" color-interpolation-filters="sRGB">
<feFlood flood-opacity="0" result="BackgroundImageFix"/>
<feColorMatrix in="SourceAlpha" type="matrix" values="0 0 0 0 0 0 0 0 0 0 0 0 0 0 0 0 0 0 127 0"/>
<feOffset dy="8"/>
<feGaussianBlur stdDeviation="16.5"/>
<feColorMatrix type="matrix" values="0 0 0 0 0.764706 0 0 0 0 0.188235 0 0 0 0 0.545098 0 0 0 0.56 0"/>
<feBlend mode="normal" in2="BackgroundImageFix" result="effect1_dropShadow"/>
<feBlend mode="normal" in="SourceGraphic" in2="effect1_dropShadow" result="shape"/>
</filter>
<linearGradient id="paint0_linear" x1="845.326" y1="266" x2="1357.82" y2="76.7016" gradientUnits="userSpaceOnUse">
<stop stop-color="white"/>
<stop offset="1" stop-color="white"/>
</linearGradient>
<linearGradient id="paint1_linear" x1="730.971" y1="158" x2="570.549" y2="425.881" gradientUnits="userSpaceOnUse">
<stop stop-color="#94009E"/>
<stop offset="1" stop-color="#FF6B74"/>
</linearGradient>
<linearGradient id="paint2_linear" x1="956.586" y1="409" x2="1136.2" y2="388.969" gradientUnits="userSpaceOnUse">
<stop stop-color="#94009E"/>
<stop offset="1" stop-color="#FF6B74"/>
</linearGradient>
</defs>
</svg>
