<svg width="18" height="21" viewBox="0 0 18 21" fill="none" xmlns="http://www.w3.org/2000/svg">
<path d="M13.4257 11.4958L3.83959 5.46674V20.5174C1.71904 20.5174 0 18.7984 0 16.6778V4.07661C0 1.66011 2.66144 0.189924 4.707 1.47644L16.5636 8.93344C18.5361 10.174 18.4631 13.0731 16.4307 14.2128L7.85024 19.0243V14.6222L13.4257 11.4958Z" fill="url(#paint0_linear)"/>
<path d="M16.4305 14.2128L7.8501 19.0243V14.6222L13.4256 11.4958C16.0302 9.95856 16.2221 8.71875 16.2221 8.71875L16.5635 8.93344C18.536 10.174 18.463 13.0731 16.4305 14.2128Z" fill="#A5A9AD"/>
<path d="M16.4305 14.2128L7.8501 19.0243V14.6222L13.4256 11.4958C16.0302 9.95856 16.2221 8.71875 16.2221 8.71875L16.5635 8.93344C18.536 10.174 18.463 13.0731 16.4305 14.2128Z" fill="url(#paint1_linear)"/>
<path d="M3.83959 5.46674V20.5174C1.71904 20.5174 0 18.7984 0 16.6778V9.30633C0 7.18578 1.71904 5.46674 3.83959 5.46674Z" fill="#A5A9AD"/>
<path d="M3.83959 5.46674V20.5174C1.71904 20.5174 0 18.7984 0 16.6778V9.30633C0 7.18578 1.71904 5.46674 3.83959 5.46674Z" fill="url(#paint2_linear)"/>
<defs>
<linearGradient id="paint0_linear" x1="3.26365" y1="1.51145" x2="13.5346" y2="9.4786" gradientUnits="userSpaceOnUse">
<stop stop-color="#EA31EC"/>
<stop offset="0.457998" stop-color="#CE24D0"/>
<stop offset="1" stop-color="#9E119F"/>
</linearGradient>
<linearGradient id="paint1_linear" x1="8.5" y1="20" x2="10.0945" y2="10.0777" gradientUnits="userSpaceOnUse">
<stop stop-color="#9E0F9F"/>
<stop offset="1" stop-color="#EA31EC"/>
</linearGradient>
<linearGradient id="paint2_linear" x1="2.20777" y1="5.735" x2="7.31114" y2="8.69186" gradientUnits="userSpaceOnUse">
<stop stop-color="#850C86"/>
<stop offset="1" stop-color="#EA31EC"/>
</linearGradient>
</defs>
</svg>
