<svg width="18" height="21" viewBox="0 0 18 21" fill="none" xmlns="http://www.w3.org/2000/svg">
<path d="M13.4256 11.4957L3.83956 5.46671V20.5173C1.71903 20.5173 0 18.7982 0 16.6777V4.07658C0 1.66011 2.66142 0.189931 4.70696 1.47644L16.5635 8.93337C18.536 10.1739 18.463 13.073 16.4305 14.2127L7.85017 19.0241V14.6221L13.4256 11.4957Z" fill="url(#paint0_linear)"/>
<path d="M16.43 14.2126L7.84961 19.0241V14.622L13.4251 11.4956C16.0297 9.95842 16.2216 8.71863 16.2216 8.71863L16.5629 8.93332C18.5354 10.1739 18.4624 13.073 16.43 14.2126Z" fill="url(#paint1_linear)"/>
<path d="M3.83956 5.46667V20.5172C1.71903 20.5172 0 18.7982 0 16.6777V9.30623C0 7.1857 1.71903 5.46667 3.83956 5.46667Z" fill="url(#paint2_linear)"/>
<defs>
<linearGradient id="paint0_linear" x1="2.69998" y1="1" x2="16.1999" y2="10.7199" gradientUnits="userSpaceOnUse">
<stop stop-color="#989898"/>
<stop offset="0.404388" stop-color="#6D6D6D"/>
<stop offset="1" stop-color="#4D4D4D"/>
</linearGradient>
<linearGradient id="paint1_linear" x1="8.63921" y1="19.8998" x2="12.8683" y2="9.25371" gradientUnits="userSpaceOnUse">
<stop stop-color="#3E3E3E"/>
<stop offset="1" stop-color="#7A7A7A"/>
</linearGradient>
<linearGradient id="paint2_linear" x1="1.79998" y1="3.51996" x2="7.86971" y2="6.72385" gradientUnits="userSpaceOnUse">
<stop stop-color="#3E3E3E"/>
<stop offset="1" stop-color="#797979"/>
</linearGradient>
</defs>
</svg>
